<svg width="112" height="88" fill="none" xmlns="http://www.w3.org/2000/svg"><g clip-path="url(#clip0_2_6394)"><path d="M107.844 66.13L20.605 87.856a5.548 5.548 0 01-4.172-.66 5.533 5.533 0 01-2.494-3.403L.144 28.498a5.583 5.583 0 01.623-4.192 5.598 5.598 0 013.389-2.55L91.366.057a5.52 5.52 0 015.763 2.108 5.5 5.5 0 01.903 1.955l13.881 55.295a5.524 5.524 0 01-.603 4.177 5.542 5.542 0 01-3.379 2.537" fill="#E30613"/><path d="M24.01 61.03l-.923.288a7.565 7.565 0 01-3.776-1.932 7.548 7.548 0 01-2.14-3.658 7.884 7.884 0 01.173-4.265 8.806 8.806 0 013.838 2.017v1.383c.02.363.087.722.202 1.066v-.288c.008-.87.085-1.736.231-2.593a11.52 11.52 0 012.773-5.4 11.545 11.545 0 015.134-3.245c.57.982.998 2.04 1.27 3.141a11.51 11.51 0 01-.887 8.109 11.537 11.537 0 01-6.039 5.492m6.724-20.17a12.581 12.581 0 00-7.56 5.474 10.333 10.333 0 00-1.934 6.08 9.058 9.058 0 00-1.992-1.844 8.666 8.666 0 00-2.886-1.153s-1.587 1.7-.605 5.763a9.71 9.71 0 002.879 4.26 9.733 9.733 0 004.652 2.195l1.328-.461 1.212-.49a12.2 12.2 0 006.618-6.148 12.172 12.172 0 00.568-9.009 14.83 14.83 0 00-2.193-4.783m49.492-8.471c0-.26-.144-.288-.23-.26l-8.428 2.133c-1.27.317-2.222.691-2.222.922l.953 13.889h.202a7.341 7.341 0 002.222-.317l7.994-1.989v-.201a4.423 4.423 0 000-1.614 4.46 4.46 0 00-.289-1.47c0-.259-.173-.288-.26-.288l-5.771 1.441-.174-2.276 4.704-1.181s.145 0 .173-.202a5.038 5.038 0 000-1.499 4.575 4.575 0 00-.26-1.411c0-.26-.172-.289-.259-.26l-4.675 1.153-.144-2.017 5.771-1.47.145-.202a4.232 4.232 0 000-1.527 4.518 4.518 0 00-.26-1.383M63.633 50.627h.26a9.043 9.043 0 002.51-.374 10.427 10.427 0 002.655-.893s.202 0 0-.26l-5.31-6.685L67.53 35.5v-.173a7.03 7.03 0 00-2.453.317 8.176 8.176 0 00-2.164.778.404.404 0 00-.173.23l-3.32 6.253-.346-5.187s-.144 0-.26-.144a9.533 9.533 0 00-2.28.346 8 8 0 00-1.904.72s-.173 0-.173.231l.952 13.802.145.173c.75.016 1.5-.081 2.222-.288a6.53 6.53 0 002.135-.807l-.432-6.57 4.155 5.446zm32.033-22.129a8.149 8.149 0 00-2.28.345 9.253 9.253 0 00-1.904.692l-3.896 8.644v-.576l-.462-6.742h-.289a9.361 9.361 0 00-2.25.345 7.455 7.455 0 00-1.905.72s-.173 0-.173.231l.952 13.802v.173a7.25 7.25 0 002.193-.288 7.538 7.538 0 002.165-.778l3.896-8.788v.547l.461 6.656h.144c.75.03 1.5-.057 2.223-.259a7.306 7.306 0 002.135-.807v-.173l-.952-13.86h-.26" fill="#fff"/><path d="M89.52 26.135a5.78 5.78 0 00-1.213.461s-.202.173-.202.26l.144 4.38c.2.034.406.034.606 0l.606-.203.145-.173 1.414-4.668a.144.144 0 000-.172 2.659 2.659 0 00-1.472 0m-37.141 9.365c-.428.08-.839.236-1.212.46a.317.317 0 00-.202.26l.144 4.38c.2.04.406.04.606 0 .214-.043.419-.12.606-.23a.288.288 0 00.145-.174l1.414-4.639a.2.2 0 000-.201 3.121 3.121 0 00-1.472 0M42.393 50.34c.375 1.296 1.183 2.333 2.886 1.959 2.251-.577 3.088-3.516 2.309-6.282-.404-1.383-1.328-2.363-2.886-1.988-2.626.663-2.886 4.178-2.193 6.31m9.61-5.907a9.091 9.091 0 01-3.258 9.96 9.124 9.124 0 01-3.351 1.566 5.778 5.778 0 01-7.561-3.89 8.977 8.977 0 013.189-9.973 9.011 9.011 0 013.362-1.553 5.779 5.779 0 016.552 1.823 5.76 5.76 0 011.066 2.154" fill="#fff"/></g><defs><clipPath id="clip0_2_6394"><path fill="#fff" d="M0 0h112v88H0z"/></clipPath></defs></svg>