<svg width="112" height="88" viewBox="0 0 112 88" fill="none" xmlns="http://www.w3.org/2000/svg">
<g clip-path="url(#clip0_2_6394)">
<path d="M107.844 66.1298L20.605 87.856C19.1817 88.1948 17.682 87.958 16.433 87.1968C15.1841 86.4356 14.2875 85.212 13.9387 83.7932L0.14432 28.4978C-0.20704 27.0732 0.0166487 25.5677 0.767102 24.3063C1.51756 23.0449 2.7346 22.1285 4.15566 21.7551L91.3662 0.0577485C92.0711 -0.113974 92.8031 -0.145102 93.5201 -0.0337044C94.2371 0.0776929 94.925 0.329411 95.5444 0.706887C96.1637 1.08436 96.7023 1.58028 97.1293 2.16609C97.5563 2.7519 97.8632 3.41601 98.0325 4.12054L111.913 59.4159C112.273 60.8333 112.056 62.3353 111.31 63.5934C110.563 64.8514 109.349 65.7633 107.931 66.1298" fill="#E30613"/>
<path d="M24.0103 61.0294L23.0868 61.3177C21.6692 61.0469 20.3588 60.3766 19.3105 59.3861C18.2622 58.3955 17.5197 57.126 17.1708 55.7276C16.8353 54.3172 16.8952 52.8416 17.3439 51.4629C18.7718 51.805 20.0913 52.4985 21.1821 53.48C21.1821 53.9122 21.1821 54.3445 21.1821 54.8632C21.2011 55.226 21.2691 55.5846 21.3842 55.9293C21.3842 55.9293 21.3842 55.9292 21.3842 55.6411C21.3923 54.7719 21.4695 53.9048 21.615 53.0479C22.0397 51.0332 22.997 49.1688 24.3876 47.6486C25.7782 46.1284 27.5511 45.0079 29.5223 44.4035C30.0926 45.3849 30.5202 46.4424 30.792 47.5442C31.4962 50.2645 31.181 53.1479 29.9055 55.6525C28.6301 58.1571 26.4823 60.1103 23.866 61.1448M30.59 40.9745C27.4596 41.7633 24.7526 43.7233 23.0291 46.4492C21.7592 48.2218 21.0825 50.3498 21.0956 52.5292C20.5284 51.8181 19.8571 51.1964 19.1043 50.685C18.2199 50.1302 17.2422 49.7396 16.2185 49.5324C16.2185 49.5324 14.6313 51.2324 15.6125 55.2953C16.1718 56.9473 17.1664 58.4185 18.4917 59.5542C19.8171 60.6899 21.4243 61.4483 23.1445 61.7498L24.472 61.2888L25.6841 60.799C28.5968 59.6707 30.9654 57.4701 32.3022 54.6506C33.639 51.831 33.8421 48.6071 32.8699 45.6425C32.4299 43.9304 31.6872 42.3104 30.6766 40.8591" fill="white"/>
<path d="M80.169 32.3879C80.169 32.1285 80.0247 32.0998 79.9381 32.1286L71.5114 34.2609C70.2417 34.5779 69.2893 34.9525 69.2893 35.183L70.2416 49.0717C70.2416 49.0717 70.2417 49.0717 70.4437 49.0717C71.1963 49.0806 71.9457 48.9737 72.6658 48.7548L80.6596 46.7665C80.6596 46.7665 80.6596 46.7665 80.6596 46.5648C80.759 46.0315 80.759 45.4845 80.6596 44.9512C80.6469 44.4486 80.5494 43.9518 80.371 43.4816C80.371 43.2223 80.1978 43.1934 80.1113 43.1934L74.3396 44.6341L74.1664 42.3578L78.8704 41.1765C78.8704 41.1765 79.0146 41.1765 79.0435 40.9748C79.1182 40.4781 79.1182 39.973 79.0435 39.4763C79.0318 38.995 78.9441 38.5185 78.7838 38.0645C78.7838 37.8051 78.6106 37.7762 78.524 37.805L73.849 38.9577L73.7047 36.9406L79.4764 35.4711C79.4764 35.4711 79.4764 35.471 79.6207 35.2693C79.7133 34.7645 79.7133 34.2471 79.6207 33.7423C79.6069 33.2705 79.5193 32.8039 79.361 32.3592" fill="white"/>
<path d="M63.6331 50.6274C63.6331 50.6274 63.6331 50.6274 63.8928 50.6274C64.7432 50.6212 65.5884 50.4951 66.4035 50.2528C67.3247 50.0758 68.2178 49.7754 69.0585 49.3596C69.0585 49.3596 69.2605 49.3597 69.0585 49.1004L63.7485 42.4153L67.529 35.4997C67.529 35.4997 67.529 35.3557 67.529 35.3269C66.699 35.2866 65.8684 35.3939 65.076 35.6438C64.3214 35.7999 63.5927 36.0618 62.9116 36.4218C62.8275 36.4748 62.7658 36.5569 62.7385 36.6524L59.4197 42.9051L59.0734 37.7185C59.0734 37.7185 58.9292 37.7186 58.8137 37.5745C58.0426 37.5971 57.277 37.7132 56.5339 37.9203C55.8708 38.0783 55.2307 38.3204 54.6292 38.6406C54.6292 38.6406 54.4561 38.6405 54.4561 38.871L55.4084 52.6734C55.4084 52.6734 55.4084 52.6733 55.5527 52.8462C56.3037 52.8618 57.0527 52.7645 57.7748 52.558C58.5286 52.4165 59.2515 52.1435 59.9103 51.7513L59.4775 45.1814L63.6331 50.6274Z" fill="white"/>
<path d="M95.6661 28.4978C94.8936 28.5044 94.1259 28.6208 93.3863 28.8435C92.7279 29.0036 92.0892 29.2355 91.4816 29.535L87.5857 38.1794V37.6031L87.124 30.8606C87.124 30.8606 86.9508 30.8606 86.8354 30.8606C86.0737 30.8838 85.3178 30.9999 84.5844 31.2063C83.9195 31.3582 83.2786 31.6006 82.6797 31.9267C82.6797 31.9267 82.5066 31.9268 82.5066 32.1573L83.4589 45.9594C83.4589 45.9594 83.4589 45.9594 83.4589 46.1323C84.2005 46.149 84.9402 46.0519 85.6522 45.8442C86.4093 45.6971 87.1392 45.4347 87.8166 45.0662L91.7125 36.2778V36.8252L92.1742 43.4814C92.1742 43.4814 92.1742 43.4814 92.3185 43.4814C93.0683 43.5118 93.8181 43.4242 94.5406 43.222C95.2904 43.0666 96.0111 42.7944 96.6761 42.4153C96.6761 42.4153 96.6761 42.4153 96.6761 42.2424L95.7238 28.3826C95.7238 28.3826 95.5795 28.3826 95.4641 28.3826" fill="white"/>
<path d="M89.5192 26.1348C89.0991 26.2426 88.6925 26.3973 88.3071 26.596C88.3071 26.596 88.1051 26.7688 88.1051 26.8552L88.2494 31.2351C88.4499 31.2701 88.6549 31.2701 88.8554 31.2351L89.4615 31.0334C89.4615 31.0334 89.4615 31.0334 89.6058 30.8605L91.0198 26.1925C91.0385 26.1676 91.0487 26.1372 91.0487 26.106C91.0487 26.0748 91.0385 26.0446 91.0198 26.0196C90.539 25.8811 90.0288 25.8811 89.548 26.0196" fill="white"/>
<path d="M52.4071 35.3846C51.9787 35.4645 51.5682 35.6206 51.1951 35.8456C51.1409 35.8662 51.0934 35.9013 51.0578 35.947C51.0222 35.9928 50.9998 36.0475 50.993 36.105L51.1373 40.4847C51.3373 40.5258 51.5434 40.5258 51.7433 40.4847C51.9568 40.4419 52.1616 40.3642 52.3494 40.2543C52.3838 40.2366 52.4144 40.2121 52.4391 40.1824C52.4639 40.1527 52.4825 40.1184 52.4937 40.0814L53.9077 35.4421C53.9255 35.4115 53.9348 35.3768 53.9348 35.3413C53.9348 35.3059 53.9255 35.2712 53.9077 35.2406C53.4242 35.1233 52.9195 35.1233 52.436 35.2406" fill="white"/>
<path d="M42.3932 50.3394C42.7683 51.6361 43.5764 52.6734 45.279 52.2988C47.53 51.7225 48.3669 48.7835 47.5877 46.0172C47.1837 44.6341 46.2602 43.6544 44.7019 44.029C42.0758 44.6918 41.816 48.2072 42.5086 50.3394M52.1185 44.4325C52.4837 45.6225 52.6007 46.8746 52.4622 48.1115C52.3238 49.3484 51.9328 50.5439 51.3135 51.624C50.6941 52.7041 49.8596 53.646 48.8614 54.3915C47.8632 55.137 46.7226 55.6703 45.5099 55.9583C44.7594 56.2341 43.9597 56.351 43.1615 56.3018C42.3633 56.2527 41.584 56.0385 40.8731 55.6727C40.1622 55.307 39.5351 54.7978 39.0318 54.1773C38.5284 53.5568 38.1597 52.8385 37.9489 52.0683C37.5652 50.8825 37.4326 49.63 37.5595 48.3903C37.6863 47.1506 38.0699 45.9507 38.6859 44.8669C39.3019 43.7831 40.1369 42.8391 41.1377 42.0946C42.1386 41.3502 43.2835 40.8215 44.4998 40.5424C45.2594 40.2582 46.0705 40.1371 46.8801 40.187C47.6897 40.2368 48.4797 40.4565 49.1986 40.8317C49.9174 41.2069 50.549 41.7293 51.0521 42.3646C51.5552 42.9999 51.9186 43.7339 52.1185 44.5188" fill="white"/>
</g>
<defs>
<clipPath id="clip0_2_6394">
<rect width="112" height="88" fill="white"/>
</clipPath>
</defs>
</svg>
