<svg width="65" height="66" viewBox="0 0 65 66" fill="none" xmlns="http://www.w3.org/2000/svg">
<path d="M32.4988 64.6341C14.7865 64.6341 0.374573 50.2244 0.374573 32.5099C0.374573 14.7954 14.7865 0.376953 32.4988 0.376953C50.2111 0.376953 64.6231 14.7889 64.6231 32.5012C64.6231 50.2135 50.2133 64.6341 32.4988 64.6341ZM32.4988 2.19604C15.7827 2.19604 2.18067 15.7959 2.18067 32.5142C2.18067 49.2325 15.7784 62.8324 32.4988 62.8324C49.2193 62.8324 62.817 49.2325 62.817 32.5142C62.817 15.7959 49.215 2.18738 32.4988 2.18738V2.19604Z" fill="#E30613"/>
<path d="M32.4989 65.0022C14.5787 65.0022 0 50.4213 0 32.5011C0 14.5809 14.5787 0 32.4989 0C50.4191 0 65 14.5809 65 32.5011C65 50.4213 50.4191 65.0022 32.4989 65.0022ZM32.4989 0.753622C14.9923 0.749291 0.753622 14.9967 0.753622 32.5011C0.753622 50.0055 14.9945 64.2485 32.5011 64.2485C50.0077 64.2485 64.2485 50.0077 64.2485 32.5011C64.2485 14.9945 50.0033 0.749292 32.4989 0.749292V0.753622ZM32.4989 63.1917C15.5749 63.1917 1.80826 49.4251 1.80826 32.5011C1.80826 15.577 15.5749 1.81043 32.4989 1.81043C49.423 1.81043 63.1917 15.5792 63.1917 32.5011C63.1917 49.4229 49.423 63.1917 32.4989 63.1917ZM32.4989 2.55539C15.9907 2.55539 2.56189 15.982 2.56189 32.4924C2.56189 49.0028 15.9885 62.4294 32.4989 62.4294C49.0093 62.4294 62.4381 49.0028 62.4381 32.4924C62.4381 15.982 49.0072 2.56405 32.4989 2.56405V2.55539Z" fill="#E30613"/>
<path d="M8.14469 47.0234L8.79436 46.6834L7.99093 45.1675L7.34126 45.5053L6.95795 44.782L8.23781 44.1064L8.26163 44.1497C8.49984 44.5611 8.85933 44.4334 9.5783 44.1237L10.7759 43.6169L11.8154 45.5833L9.63244 46.7332L9.80786 47.0667L8.52583 47.7424L8.14469 47.0234ZM9.63244 44.9683C9.37887 45.1019 9.09818 45.1759 8.81169 45.1848L9.24481 45.9969L10.7715 45.1913L10.4597 44.6023L9.63244 44.9683Z" fill="#E30613"/>
<path d="M12.4193 47.8245L11.6289 48.3161C10.6955 48.9073 10.2234 48.9203 9.5824 48.054L10.1606 47.6209C10.4681 48.0367 10.7042 47.9392 11.4231 47.4845L12.5926 46.7568L13.8919 48.5023L11.3214 50.4058L10.8124 49.7172L12.7615 48.2792L12.4193 47.8245Z" fill="#E30613"/>
<path d="M13.9637 51.4758L12.5582 51.7422L11.8652 51.0492L13.4331 50.8326C13.3058 50.655 13.2488 50.4365 13.2732 50.2193C13.2976 50.0021 13.4017 49.8017 13.5652 49.6567C14.0785 49.1435 14.648 49.3124 15.1786 49.8516L16.1119 50.785L13.8554 53.0394L13.2512 52.4352L14.0915 51.6036L13.9637 51.4758ZM14.7346 50.2891C14.5311 50.0833 14.3123 50.0574 14.1218 50.2479C13.9312 50.4385 13.929 50.6659 14.1564 50.8976L14.4748 51.2159L15.066 50.6226L14.7346 50.2891Z" fill="#E30613"/>
<path d="M18.7281 52.7446C19.3561 53.1778 19.5337 53.6109 19.2305 54.0722C19.1603 54.1865 19.0604 54.2798 18.9414 54.3419C18.8225 54.4041 18.6889 54.4328 18.5549 54.4251C18.6449 54.5697 18.6871 54.7389 18.6754 54.9088C18.6638 55.0787 18.5988 55.2406 18.4899 55.3715C18.1521 55.8718 17.5933 55.8306 16.9458 55.3932L15.8219 54.6352L17.6042 51.9867L18.7281 52.7446ZM17.2728 54.8626C17.5176 55.0272 17.7168 55.0423 17.8727 54.8214C18.0286 54.6006 17.9377 54.4035 17.693 54.2389L17.2988 53.9747L16.8787 54.5962L17.2728 54.8626ZM17.9875 53.7993C18.0241 53.8323 18.0674 53.8572 18.1144 53.8722C18.1614 53.8872 18.211 53.892 18.26 53.8863C18.309 53.8805 18.3562 53.8644 18.3985 53.8389C18.4407 53.8135 18.4771 53.7793 18.5051 53.7387C18.635 53.5351 18.544 53.3705 18.3491 53.2406L17.9658 52.9829L17.5955 53.5351L17.9875 53.7993Z" fill="#E30613"/>
<path d="M21.3049 56.9745C21.1071 57.1663 20.8522 57.2886 20.5788 57.3229C20.3054 57.3573 20.0282 57.3019 19.789 57.1651C19.2281 56.8705 18.8275 56.2425 19.1783 55.5712L19.6699 54.6378C20.0207 53.9687 20.7679 53.9383 21.3288 54.2329C21.5758 54.3424 21.7773 54.534 21.8993 54.7751C22.0212 55.0163 22.0561 55.2921 21.9979 55.556L21.2421 55.4174C21.2585 55.3153 21.2409 55.2106 21.192 55.1194C21.1431 55.0283 21.0656 54.9557 20.9714 54.9129C20.9282 54.8846 20.8798 54.8652 20.829 54.8558C20.7783 54.8465 20.7261 54.8474 20.6757 54.8585C20.6252 54.8696 20.5775 54.8907 20.5353 54.9204C20.4932 54.9502 20.4574 54.9881 20.43 55.032L19.9514 55.9718C19.9295 56.0191 19.9174 56.0704 19.9159 56.1225C19.9144 56.1746 19.9236 56.2265 19.9429 56.2749C19.9621 56.3234 19.9911 56.3674 20.0279 56.4042C20.0648 56.4411 20.1087 56.4701 20.1572 56.4894C20.2517 56.5427 20.3609 56.5642 20.4686 56.5505C20.5763 56.5369 20.6766 56.4888 20.7549 56.4136L21.3049 56.9745Z" fill="#E30613"/>
<path d="M24.0662 58.3535C23.8903 58.491 23.6809 58.5788 23.4595 58.6077C23.2382 58.6367 23.0132 58.6057 22.8079 58.5181C22.2102 58.2864 21.7425 57.7038 22.0132 57.0022L22.39 56.019C22.665 55.2979 23.41 55.2026 24.0077 55.43C24.6054 55.6574 25.0428 56.1728 24.7678 56.8896L24.4321 57.7558L22.8729 57.1581L22.8231 57.2902C22.7343 57.5198 22.9054 57.7233 23.1371 57.8143C23.2257 57.853 23.3226 57.869 23.419 57.8611C23.5153 57.8532 23.6082 57.8215 23.6893 57.7688L24.0662 58.3535ZM24.0098 56.6081C24.0878 56.4023 23.9384 56.2247 23.737 56.1468C23.6916 56.1214 23.6417 56.1054 23.59 56.0996C23.5384 56.0938 23.4861 56.0985 23.4362 56.1132C23.3864 56.1279 23.34 56.1525 23.2998 56.1854C23.2596 56.2183 23.2264 56.2589 23.2021 56.3049L23.1003 56.5691L23.9059 56.8787L24.0098 56.6081Z" fill="#E30613"/>
<path d="M26.866 58.0184C27.0674 58.5382 27.3316 59.3438 27.5157 59.831L26.5304 59.5863L26.2878 58.8413L26.2467 58.4948H26.2055L25.989 58.7894C25.846 58.9258 25.6945 59.0774 25.4303 59.3243L24.4926 59.0925L25.8785 57.7932C25.7702 57.4878 25.7031 57.1912 25.257 55.9979L26.1947 56.2296L26.4524 57.0396L26.4936 57.3622H26.5282L26.7079 57.0959C26.8249 56.9833 27.0263 56.7602 27.2948 56.4917L28.2693 56.7321L26.866 58.0184Z" fill="#E30613"/>
<path d="M30.3158 60.1596L30.4718 57.706L29.6055 57.6497L29.6532 56.9177L32.2237 57.0823L32.1782 57.8143L31.312 57.7601L31.1561 60.2137L30.3158 60.1596Z" fill="#E30613"/>
<path d="M34.6707 58.1113H34.6534L34.4997 58.6332L33.7785 60.2206L32.8885 60.2769L32.6871 57.0935L33.5533 57.0394L33.6486 58.5553V59.166H33.6659L33.8305 58.6506L34.5235 56.9831L35.42 56.9268L35.6214 60.1102L34.7552 60.1643L34.6643 58.7264L34.6707 58.1113Z" fill="#E30613"/>
<path d="M37.0663 57.4161L37.5276 59.7982L36.6873 59.9628L36.0788 56.827L38.6125 56.3354L39.2211 59.469L38.3743 59.6336L37.913 57.2515L37.0663 57.4161Z" fill="#E30613"/>
<path d="M39.5175 57.2172C39.2879 56.4939 39.7839 55.9417 40.3837 55.7424C40.9836 55.5432 41.7134 55.7208 41.943 56.4419L42.2591 57.4337C42.493 58.1679 41.9906 58.7006 41.3929 58.8998C40.7952 59.0991 40.0632 58.941 39.8293 58.2069L39.5175 57.2172ZM40.3166 56.9032L40.6544 57.9665C40.7046 58.0502 40.7815 58.1145 40.8728 58.149C40.964 58.1836 41.0643 58.1863 41.1573 58.1567C41.2503 58.1271 41.3305 58.067 41.3851 57.9861C41.4397 57.9052 41.4653 57.8082 41.4579 57.7109L41.12 56.6476C41.0594 56.4549 40.8125 56.4159 40.6263 56.4766C40.44 56.5372 40.2495 56.7104 40.3123 56.9032H40.3166Z" fill="#E30613"/>
<path d="M43.4157 54.6271C44.0978 54.3001 44.5786 54.378 44.8125 54.8674C44.8759 54.9859 44.9059 55.1194 44.8994 55.2537C44.893 55.3879 44.8502 55.5179 44.7757 55.6297C44.9457 55.6252 45.1128 55.6745 45.2532 55.7705C45.3936 55.8666 45.5 56.0045 45.5574 56.1646C45.8173 56.7082 45.4968 57.1673 44.793 57.5051L43.5694 58.0898L42.1943 55.2139L43.4157 54.6271ZM43.9484 55.8008C43.9962 55.787 44.0404 55.763 44.078 55.7305C44.1157 55.698 44.1458 55.6577 44.1664 55.6125C44.187 55.5672 44.1975 55.518 44.1973 55.4683C44.197 55.4185 44.186 55.3694 44.165 55.3244C44.0545 55.1078 43.8683 55.1078 43.6582 55.2053L43.2403 55.4045L43.5283 56.0044L43.9484 55.8008ZM44.5028 56.9551C44.7692 56.8273 44.8818 56.6627 44.7692 56.418C44.6565 56.1733 44.4443 56.1495 44.178 56.2772L43.7448 56.483L44.0697 57.1608L44.5028 56.9551Z" fill="#E30613"/>
<path d="M47.201 53.2082L48.6758 55.1291L47.9958 55.651L46.0468 53.1195L48.0954 51.5472L50.0444 54.0788L49.3601 54.6029L47.8853 52.6842L47.201 53.2082Z" fill="#E30613"/>
<path d="M50.0682 50.7268L50.6746 51.435C51.4022 52.2666 51.4867 52.7343 50.7266 53.4966L50.2155 52.9899C50.5793 52.6239 50.4472 52.4052 49.8885 51.7641L48.9919 50.7182L50.523 49.1763L52.786 51.4241L52.184 52.0305L50.4667 50.3262L50.0682 50.7268Z" fill="#E30613"/>
<path d="M53.0397 47.8225L53.0223 47.8334L53.319 48.2903L54.0553 49.8712L53.5161 50.5836L50.9694 48.6606L51.4848 47.9784L52.6953 48.8923L53.1566 49.293V49.2778L52.8816 48.8252L52.0781 47.2053L52.6217 46.4885L55.1684 48.4116L54.6487 49.0981L53.4988 48.2318L53.0397 47.8225Z" fill="#E30613"/>
<path d="M56.0454 46.9478L53.9058 45.7395L53.4857 46.4844L52.8468 46.1249L54.1115 43.8835L54.7504 44.2452L54.3281 44.988L56.4677 46.1964L56.0454 46.9478Z" fill="#E30613"/>
<path d="M8.76623 27.778L6.38408 27.1695L6.16753 27.9989L5.45721 27.817L6.09606 25.3223L6.80421 25.5042L6.58765 26.3336L8.98278 26.9529L8.76623 27.778Z" fill="#E30613"/>
<path d="M9.64328 23.3926C9.78069 23.5685 9.8681 23.7782 9.89631 23.9996C9.92451 24.2211 9.89246 24.446 9.80353 24.6508C9.57398 25.2506 8.98927 25.7184 8.28762 25.4455L7.30445 25.0665C6.58331 24.7894 6.48802 24.0444 6.71974 23.4467C6.95146 22.849 7.46254 22.4115 8.18151 22.6887L9.04774 23.0266L8.44788 24.5858L8.57998 24.6356C8.80953 24.7244 9.01309 24.5511 9.10405 24.3216C9.1433 24.2331 9.15971 24.1362 9.15177 24.0397C9.14382 23.9432 9.11178 23.8502 9.05857 23.7694L9.64328 23.3926ZM7.89782 23.4467C7.68126 23.3666 7.51451 23.516 7.43655 23.7174C7.35859 23.9188 7.38024 24.1722 7.59247 24.2545L7.85667 24.3562L8.16852 23.5506L7.89782 23.4467Z" fill="#E30613"/>
<path d="M9.77103 20.8157C10.3233 20.7486 11.1722 20.6901 11.6876 20.6251L11.209 21.5217L10.4272 21.5715L10.0807 21.526L10.0612 21.565L10.2929 21.8487C10.3904 22.0197 10.5095 22.2038 10.6762 22.5222L10.2193 23.3754L9.29894 21.7101C8.97627 21.7382 8.67308 21.7317 7.40405 21.8703L7.85882 21.0171L8.7099 20.9694L9.0304 21.0084L9.04989 20.9759L8.83334 20.7356C8.75321 20.5948 8.58646 20.3457 8.40022 20.0187L8.87232 19.1309L9.77103 20.8157Z" fill="#E30613"/>
<path d="M11.3346 18.9097L12.3763 19.6568L11.876 20.352L9.27734 18.4918L9.77543 17.7966L10.7023 18.4593L11.2047 17.7598L10.2822 17.095L10.7868 16.3933L13.3855 18.2535L12.8809 18.9552L11.8392 18.2081L11.3346 18.9097Z" fill="#E30613"/>
<path d="M12.1881 16.3912C11.6337 15.8737 11.7961 15.1504 12.2292 14.6783C12.6624 14.2062 13.377 14.0069 13.9292 14.5245L14.6893 15.2327C15.2524 15.7567 15.077 16.4692 14.6504 16.937C14.2237 17.4047 13.5113 17.6256 12.9482 17.1015L12.1881 16.3912ZM12.7295 15.7286L13.5459 16.4887C13.6307 16.5368 13.7292 16.5548 13.8255 16.54C13.9218 16.5251 14.0103 16.4782 14.0767 16.4068C14.1431 16.3355 14.1834 16.2438 14.1912 16.1467C14.1991 16.0495 14.1739 15.9526 14.1198 15.8715L13.3142 15.1114C13.1669 14.9728 12.9352 15.0594 12.7988 15.2023C12.6624 15.3453 12.5822 15.59 12.7295 15.7286Z" fill="#E30613"/>
<path d="M15.2911 12.926L15.826 13.6883C16.4757 14.5892 16.506 15.0613 15.6744 15.7478L15.2153 15.1912C15.6138 14.8621 15.5055 14.6325 15.0118 13.9395L14.2213 12.8113L15.8975 11.4253L17.9288 13.8832L17.2683 14.429L15.7286 12.5644L15.2911 12.926Z" fill="#E30613"/>
<path d="M17.251 11.7787C16.8461 11.129 17.1904 10.4794 17.7296 10.1329C18.2688 9.78638 19.0116 9.77988 19.4144 10.4209L19.9688 11.3023C20.3781 11.952 20.0251 12.6016 19.4902 12.9395C18.9553 13.2773 18.2125 13.3119 17.8032 12.6601L17.251 11.7787ZM17.9462 11.2785L18.5374 12.2205C18.6068 12.2894 18.6974 12.3327 18.7946 12.3435C18.8918 12.3543 18.9898 12.3319 19.0726 12.2799C19.1554 12.228 19.2182 12.1495 19.2508 12.0574C19.2834 11.9652 19.2838 11.8647 19.252 11.7722L18.6608 10.828C18.5961 10.755 18.5058 10.7098 18.4085 10.7017C18.3113 10.6936 18.2148 10.7234 18.1389 10.7847C17.9657 10.893 17.8379 11.1052 17.9462 11.2785Z" fill="#E30613"/>
<path d="M21.0279 11.9628L19.644 9.08693L21.4761 8.20337L21.8118 8.89852L20.7507 9.4096L21.801 11.5925L21.0279 11.9628Z" fill="#E30613"/>
<path d="M24.3823 8.36558H24.3585L24.3476 8.90914L24.0683 10.6308L23.2259 10.9275L22.1929 7.89565L23.0028 7.61845L23.4901 9.05423L23.646 9.64544H23.6633L23.6871 9.10404L23.9253 7.31094L24.7764 7.02075L25.8029 10.0526L24.9865 10.3298L24.523 8.96545L24.3823 8.36558Z" fill="#E30613"/>
<path d="M27.6178 8.44384L27.0547 9.76052L26.0932 9.94892L26.7862 8.52613C26.5678 8.53293 26.3546 8.45856 26.1878 8.31737C26.021 8.17619 25.9125 7.97821 25.8831 7.76168C25.7445 7.04704 26.1972 6.67889 26.9464 6.52946L28.2458 6.27393L28.8565 9.41186L28.0162 9.57644L27.7997 8.41352L27.6178 8.44384ZM27.0612 7.14449C26.7775 7.20079 26.6281 7.36105 26.6866 7.63175C26.745 7.90244 26.927 8.02588 27.241 7.96308L27.6741 7.87646L27.5117 7.05354L27.0612 7.14449Z" fill="#E30613"/>
<path d="M31.639 6.68095H33.4256V7.57317L31.639 7.58617V9.21252H30.7295L30.6992 4.85103L33.6508 4.83154V5.71294L31.613 5.72593L31.639 6.68095Z" fill="#E30613"/>
<path d="M36.6223 9.38149C36.2203 9.47629 35.8053 9.50337 35.3944 9.46162C34.6992 9.37283 34.095 9.0285 34.212 8.12112L34.4718 6.07031L35.3207 6.17643L35.0674 8.17959C35.0535 8.24926 35.0549 8.32114 35.0717 8.39018C35.0885 8.45921 35.1202 8.52374 35.1646 8.57924C35.2089 8.63474 35.2649 8.67987 35.3285 8.71146C35.3922 8.74306 35.4619 8.76035 35.533 8.76213C35.6371 8.77621 35.7429 8.77033 35.8448 8.74481L36.1567 6.27821L36.9991 6.38432L36.6223 9.38149Z" fill="#E30613"/>
<path d="M38.5279 10.0618C38.4688 10.0562 38.4102 10.0468 38.3525 10.0336C37.5469 9.84953 37.3108 9.25183 37.4581 8.61515L38.1857 5.45557L39.0195 5.6483L38.2918 8.80572C38.2398 9.03961 38.3503 9.26916 38.6925 9.34712L38.5279 10.0618Z" fill="#E30613"/>
<path d="M40.1673 10.5527C40.1067 10.5397 40.0461 10.5289 39.9919 10.5116C39.2037 10.269 39.0131 9.64535 39.2037 9.03249L40.1673 5.94653L40.9859 6.19774L40.0331 9.29453C39.9638 9.52408 40.0569 9.76013 40.3926 9.86191L40.1673 10.5527Z" fill="#E30613"/>
<path d="M42.4669 11.4323L41.6396 11.0663L43.3981 7.073L44.2254 7.43898L42.4669 11.4323Z" fill="#E30613"/>
<path d="M44.5655 9.11475C44.965 9.13616 45.3545 9.24797 45.7046 9.44175C46.3326 9.79474 46.7571 10.4098 46.3434 11.1396L45.3148 12.9565L44.5742 12.5385L45.5877 10.7476C45.6172 10.694 45.6351 10.6347 45.6401 10.5737C45.6451 10.5127 45.6371 10.4513 45.6167 10.3936C45.5962 10.3359 45.5637 10.2831 45.5214 10.2389C45.4791 10.1947 45.4278 10.1599 45.3711 10.1369C45.2652 10.0769 45.1463 10.0435 45.0246 10.0394L43.8487 12.1271L43.1016 11.7048L44.5655 9.11475Z" fill="#E30613"/>
<path d="M47.9134 14.6477C47.5047 14.5293 47.1199 14.3402 46.7765 14.089C46.2416 13.6862 45.9341 13.1101 46.3824 12.4128L47.0602 11.5141C47.4673 10.9727 48.182 11.0074 48.6562 11.3582C48.8009 11.4664 48.9206 11.6045 49.0071 11.7631L49.739 10.793L50.4277 11.3127L47.9134 14.6477ZM48.6129 12.2829C48.483 11.9927 48.0239 11.7242 47.7683 11.9949L47.0147 12.991C46.7982 13.305 47.1771 13.6992 47.502 13.7598L48.6129 12.2829Z" fill="#E30613"/>
<path d="M50.1983 16.8245C49.8204 16.6588 49.4734 16.4304 49.1718 16.1488C48.6672 15.6594 48.4052 15.014 49.0354 14.3665L50.482 12.8853L51.0927 13.483L49.6829 14.9274C49.6293 14.9746 49.5866 15.0329 49.558 15.0984C49.5293 15.1638 49.5153 15.2347 49.517 15.3061C49.5186 15.3775 49.5359 15.4477 49.5675 15.5117C49.5992 15.5757 49.6445 15.632 49.7002 15.6767C49.775 15.7511 49.8631 15.8106 49.9601 15.8521L51.6925 14.072L52.3011 14.6654L50.1983 16.8245Z" fill="#E30613"/>
<path d="M52.6411 18.8103C52.3839 18.9041 52.1033 18.9127 51.8408 18.8347C51.5784 18.7567 51.348 18.5963 51.1837 18.3772C50.7896 17.8813 50.6726 17.145 51.2638 16.6729L52.0867 16.0232C52.678 15.549 53.3753 15.8197 53.7716 16.3156C53.9525 16.5155 54.0592 16.7716 54.0738 17.0409C54.0884 17.3102 54.01 17.5763 53.8517 17.7947L53.2172 17.3615C53.2722 17.2743 53.2974 17.1716 53.2888 17.0688C53.2802 16.966 53.2383 16.8688 53.1695 16.792C53.1415 16.7485 53.1051 16.7111 53.0623 16.682C53.0196 16.6529 52.9714 16.6327 52.9207 16.6226C52.87 16.6125 52.8178 16.6127 52.7671 16.6232C52.7165 16.6337 52.6685 16.6543 52.626 16.6837L51.8052 17.3334C51.7661 17.3679 51.7345 17.41 51.7122 17.4571C51.6899 17.5042 51.6775 17.5554 51.6757 17.6075C51.6738 17.6596 51.6827 17.7115 51.7016 17.7601C51.7205 17.8086 51.7491 17.8528 51.7857 17.8899C51.8511 17.9766 51.9425 18.0401 52.0466 18.0709C52.1507 18.1017 52.2619 18.0982 52.3639 18.061L52.6411 18.8103Z" fill="#E30613"/>
<path d="M53.0936 20.9305C52.392 20.3718 52.3422 19.6116 53.1781 19.0789L55.5104 17.563L55.9435 18.2235L55.3827 18.6566L55.6902 19.133L55.0405 19.5662L54.7351 19.0897L53.6524 19.787C53.347 19.9841 53.3687 20.2202 53.6892 20.5472L53.0936 20.9305Z" fill="#E30613"/>
<path d="M56.5132 20.599L53.6979 22.1365L53.2864 21.3851L56.0887 19.8475L56.5132 20.599ZM57.4227 19.592C57.4581 19.6503 57.4811 19.7154 57.4903 19.7831C57.4994 19.8507 57.4945 19.9195 57.4758 19.9852C57.457 20.0509 57.425 20.112 57.3816 20.1647C57.3382 20.2174 57.2843 20.2605 57.2235 20.2915C57.1645 20.3268 57.0989 20.3496 57.0307 20.3585C56.9625 20.3674 56.8933 20.3621 56.8272 20.343C56.7612 20.3239 56.6998 20.2914 56.6469 20.2475C56.5939 20.2036 56.5506 20.1493 56.5197 20.0879C56.4878 20.0285 56.4682 19.9633 56.4618 19.8962C56.4555 19.829 56.4626 19.7613 56.4828 19.697C56.5029 19.6326 56.5358 19.573 56.5793 19.5215C56.6228 19.47 56.6761 19.4277 56.7362 19.3971C56.7938 19.3641 56.8574 19.343 56.9233 19.3348C56.9891 19.3267 57.0559 19.3317 57.1198 19.3497C57.1837 19.3676 57.2434 19.3981 57.2954 19.4393C57.3474 19.4805 57.3907 19.5317 57.4227 19.5898V19.592Z" fill="#E30613"/>
<path d="M55.937 21.7987C56.6322 21.4999 57.2364 21.9395 57.4898 22.5242C57.7431 23.1089 57.6457 23.8452 56.9505 24.1441L55.9955 24.5577C55.2895 24.863 54.707 24.4169 54.4493 23.8366C54.1916 23.2562 54.276 22.5177 54.982 22.2124L55.937 21.7987ZM56.3268 22.5632L55.3047 22.9963C55.2181 23.0491 55.1547 23.1328 55.1274 23.2304C55.1001 23.3281 55.1108 23.4325 55.1574 23.5225C55.1915 23.6169 55.26 23.6948 55.3492 23.7406C55.4384 23.7865 55.5417 23.7967 55.6382 23.7694L56.6603 23.3363C56.8488 23.2562 56.8617 23.0093 56.7838 22.8274C56.7058 22.6455 56.5131 22.4831 56.3268 22.5632Z" fill="#E30613"/>
<path d="M58.0464 24.6531C58.3162 24.9488 58.5166 25.301 58.6332 25.6839C58.8325 26.3769 58.7047 27.111 57.9013 27.3427L55.896 27.9231L55.6599 27.1067L57.6349 26.535C57.6932 26.5173 57.7471 26.4876 57.7931 26.4477C57.8391 26.4079 57.8762 26.3587 57.902 26.3036C57.9277 26.2484 57.9415 26.1884 57.9425 26.1275C57.9435 26.0667 57.9317 26.0062 57.9078 25.9503C57.8752 25.8322 57.8134 25.7242 57.728 25.6362L55.426 26.3032L55.1878 25.4803L58.0464 24.6531Z" fill="#E30613"/>
<path d="M18.1024 48.5868C17.9919 48.7594 17.9545 48.9688 17.9983 49.169C18.0422 49.3692 18.1637 49.5438 18.3363 49.6544C18.4611 49.7343 18.606 49.7771 18.7542 49.7778C18.8839 49.7779 19.0114 49.7451 19.125 49.6827C19.2386 49.6202 19.3345 49.53 19.4039 49.4205C19.588 49.1346 21.2511 46.5251 23.2435 42.9389C25.3831 46.4038 27.2 48.9008 27.5552 49.3858C27.6139 49.4938 27.6979 49.5859 27.7999 49.6544C27.8107 49.6544 27.8237 49.6544 27.8345 49.6652C27.9392 49.7247 28.0564 49.7588 28.1767 49.7648C28.1897 49.7648 28.2027 49.7778 28.2157 49.7778C28.2287 49.7778 28.2568 49.7627 28.2785 49.7605C28.3706 49.7561 28.461 49.7341 28.5448 49.6955C28.5635 49.6882 28.5816 49.6795 28.599 49.6695C28.631 49.6573 28.6621 49.6428 28.6921 49.6262C28.7907 49.5506 28.8688 49.4516 28.9195 49.3382C29.2292 48.8553 30.81 46.3519 32.7049 42.9389C34.6063 46.0097 36.2565 48.3355 36.852 49.1585C36.8724 49.2595 36.9128 49.3554 36.9709 49.4405C37.0289 49.5257 37.1033 49.5984 37.1898 49.6544C37.3146 49.7343 37.4596 49.7771 37.6078 49.7778C37.623 49.7778 37.6381 49.7778 37.6554 49.7648C37.8332 49.7782 38.0101 49.7292 38.1557 49.6262C38.2389 49.5636 38.3088 49.485 38.3613 49.395C38.4137 49.305 38.4476 49.2054 38.461 49.1022C38.9829 48.2749 40.4101 45.9621 42.0971 42.9389C44.3341 46.5533 46.2311 49.1563 46.465 49.4746C46.5239 49.56 46.5993 49.6326 46.6867 49.6882C46.7742 49.7439 46.8719 49.7813 46.9742 49.7984C47.0764 49.8155 47.181 49.8118 47.2818 49.7877C47.3826 49.7635 47.4775 49.7193 47.5609 49.6577C47.6443 49.5961 47.7144 49.5184 47.7672 49.4292C47.8199 49.3399 47.8541 49.241 47.8679 49.1383C47.8816 49.0355 47.8745 48.9311 47.8471 48.8311C47.8196 48.7312 47.7724 48.6378 47.7081 48.5564C46.4564 46.8565 44.7152 44.3032 42.9438 41.3862C46.3351 35.0822 50.1812 26.6451 49.3604 22.0822C49.2543 21.4866 48.91 20.7179 48.3123 19.7347C47.6611 18.6803 46.763 17.8003 45.6956 17.1706C44.6283 16.5408 43.4237 16.1804 42.1858 16.1203C40.3426 16.0146 38.5209 16.5613 37.0404 17.6644C35.8107 16.7389 34.3328 16.2013 32.7959 16.1203C30.9381 16.0143 29.1029 16.5698 27.6158 17.6882C25.9688 16.449 23.9012 15.9056 21.8577 16.1749C19.8142 16.4442 17.958 17.5047 16.6883 19.1283C13.0761 23.819 17.9595 34.1142 22.3058 41.4165C20.0839 45.4791 18.1522 48.511 18.1024 48.5868ZM28.1789 47.6079C27.0094 45.9664 25.5628 43.8008 24.0967 41.3754C25.3463 39.0539 26.6564 36.4422 27.7782 33.8413C28.9741 36.4338 30.3108 38.9591 31.7824 41.4057C30.2838 44.1321 28.9281 46.3887 28.1789 47.6079ZM37.6013 47.5516C36.4405 45.9166 35.0026 43.7727 33.5603 41.3754C34.7969 39.0777 36.0897 36.4963 37.1985 33.9236C38.3864 36.4867 39.7108 38.9843 41.1658 41.4057C39.6954 44.0932 38.3571 46.3215 37.6013 47.5516ZM41.7506 17.6406C41.8697 17.6406 41.9888 17.6406 42.1079 17.6514C43.0964 17.6902 44.06 17.9727 44.9131 18.4736C45.7662 18.9746 46.4823 19.6786 46.9978 20.523C47.6085 21.5299 47.7969 22.067 47.8445 22.342C48.5548 26.2834 45.1938 33.8196 42.0234 39.8096C40.5301 37.2653 39.1922 34.6329 38.0171 31.9269C39.494 28.1415 40.4187 24.5379 39.9661 22.0692C39.86 21.4736 39.5178 20.7049 38.918 19.7217C38.7014 19.3719 38.4558 19.0408 38.1838 18.732C39.2362 18.0183 40.479 17.638 41.7506 17.6406ZM37.0382 19.752C37.2485 19.9933 37.439 20.2511 37.6078 20.523C38.2185 21.5299 38.4047 22.067 38.4545 22.342C38.7902 24.2044 38.2098 26.8768 37.1747 29.8025C35.7021 25.7333 35.1997 22.0995 36.7719 20.0574C36.8563 19.9512 36.9495 19.856 37.0382 19.7542V19.752ZM32.3584 17.6406C32.4775 17.6406 32.5988 17.6406 32.7179 17.6514C33.8547 17.7092 34.9535 18.0802 35.8927 18.7234C35.7757 18.8533 35.6544 18.9767 35.5483 19.1175C33.3524 21.9696 34.3031 26.8941 36.3583 31.9551C35.2755 34.5971 33.9436 37.3365 32.6335 39.8118C31.122 37.2406 29.771 34.5783 28.5881 31.8403C30.0434 28.0873 30.953 24.5206 30.5134 22.0713C30.4072 21.4758 30.0629 20.707 29.4652 19.7238C29.2555 19.3861 29.0186 19.066 28.7571 18.7667C29.8154 18.0344 31.0715 17.6416 32.3584 17.6406ZM27.6071 19.8061C27.803 20.0355 27.9811 20.2795 28.1399 20.5359C28.7506 21.5429 28.939 22.08 28.9866 22.355C29.3179 24.1958 28.7549 26.827 27.7457 29.718C26.3013 25.69 25.8184 22.0995 27.3776 20.0747C27.4534 19.9664 27.5357 19.8841 27.6071 19.8061ZM17.914 20.0703C18.5044 19.3137 19.2603 18.7024 20.1237 18.2835C20.9872 17.8645 21.9351 17.649 22.8948 17.6536C23.0139 17.6536 23.133 17.6536 23.2521 17.6644C24.4077 17.7205 25.524 18.1018 26.4724 18.7645C26.3663 18.8858 26.2558 18.9984 26.154 19.1283C23.9711 21.9631 24.9002 26.8465 26.9293 31.8771C25.8465 34.5473 24.493 37.3192 23.1677 39.8226C18.9643 32.5658 15.0901 23.7345 17.9183 20.0595L17.914 20.0703Z" fill="#E30613"/>
</svg>
